<svg xmlns="http://www.w3.org/2000/svg" width="211.908" height="49.944" viewBox="0 0 211.908 49.944">
  <g id="Group_7972" data-name="Group 7972" transform="translate(-48.559 -518.104)">
    <g id="Group_7925" data-name="Group 7925" transform="translate(107.665 523.751)">
      <path id="Path_8910" data-name="Path 8910" d="M4.71-94.235v6.629H16.859v.014l.837-.244a3.538,3.538,0,0,0,1.4-3.033c0-1.818-1.023-3.292-2.285-3.292l-.052.015v-.088ZM0-98.5H16.859v0l1.455.151a7.528,7.528,0,0,1,5.867,7.425A7.528,7.528,0,0,1,18.314-83.5l-1.455.151v0H4.71v9.022H0V-98.5Z" transform="translate(0 102.97)" fill="#fff" fill-rule="evenodd"/>
      <path id="Path_8911" data-name="Path 8911" d="M72.5-98.5H94.039v4.291H77.174v5.049H88.628v4.291H77.174v6.258H93.626L91.049-74.32H72.5v-4.291h0v-6.258h0V-89.16h0v-5.049h0Z" transform="translate(-43.037 102.97)" fill="#fff" fill-rule="evenodd"/>
      <path id="Path_8912" data-name="Path 8912" d="M146.771-93.493l-4.733,9.665h9.467ZM143.947-98.5h5.64l-.032.057.011-.005,11.9,24.241-5.2.091L153.6-79.543H139.94l-2.635,5.381L132-74.149l11.976-24.3Z" transform="translate(-78.357 102.97)" fill="#fff" fill-rule="evenodd"/>
      <path id="Path_8913" data-name="Path 8913" d="M214.031-98.449h4.676V-85.8L234.94-98.323l7.1-.008L226.32-86.239l16.174,12.414-5.98.8-13.675-10.54-4.13,3.176v6.094h-4.676Z" transform="translate(-127.051 102.94)" fill="#fff" fill-rule="evenodd"/>
      <path id="Path_8914" data-name="Path 8914" d="M321.9-107.327a7.272,7.272,0,0,0-4.046,1.192,8.309,8.309,0,0,0-2.955,3.651,13.426,13.426,0,0,0-1.121,5.628q0,5.25,2.334,8.087a7.421,7.421,0,0,0,6,2.836,7.583,7.583,0,0,0,5.911-2.444q2.213-2.444,2.213-7.393,0-5.4-2.41-8.479A7.277,7.277,0,0,0,321.9-107.327Zm.515-2.173a12.255,12.255,0,0,1,9.9,4.3q3.622,4.3,3.622,12.688A28.678,28.678,0,0,1,334.1-81.92a25.347,25.347,0,0,1-5.592,8.479,30.043,30.043,0,0,1-8.457,6.1,27.552,27.552,0,0,1-7.032,2.142l-2.061-1.056v-.6a26.825,26.825,0,0,0,9.76-4.058,21.223,21.223,0,0,0,6.229-6.774,25.784,25.784,0,0,0,3.016-9.958l-3.122,2.474a12.332,12.332,0,0,1-3.455,2.233,10,10,0,0,1-3.546.573,10.789,10.789,0,0,1-8.2-3.3q-3.137-3.3-3.137-9.158a14.646,14.646,0,0,1,3.91-10.606A13.284,13.284,0,0,1,322.413-109.5Z" transform="translate(-183.129 109.5)" fill="#fff" fill-rule="evenodd"/>
    </g>
    <g id="Group_7927" data-name="Group 7927" transform="translate(48.559 518.104)">
      <path id="Path_8921" data-name="Path 8921" d="M0-12.136H9.289l7.4-23.364H7.61Z" transform="translate(0 47.182)" fill="#017e6a" fill-rule="evenodd"/>
      <path id="Path_8922" data-name="Path 8922" d="M18-14.454h9.254L38.443-49.5H29.424Z" transform="translate(-2.98 49.5)" fill="#017e6a" fill-rule="evenodd"/>
      <path id="Path_8923" data-name="Path 8923" d="M52.443-14.454H43.189L32-49.5h9.019Z" transform="translate(-5.298 49.5)" fill="#00ccac" fill-rule="evenodd"/>
      <path id="Path_8924" data-name="Path 8924" d="M26.106-12.136H16.662L9-35.5h9.2Z" transform="translate(-1.49 47.182)" fill="#00ccac" fill-rule="evenodd"/>
    </g>
  </g>
</svg>
